<?xml version="1.0" standalone="no"?>
<!DOCTYPE svg PUBLIC "-//W3C//DTD SVG 20010904//EN"
 "http://www.w3.org/TR/2001/REC-SVG-20010904/DTD/svg10.dtd">
<svg version="1.0" xmlns="http://www.w3.org/2000/svg"
 width="608.000000pt" height="384.000000pt" viewBox="0 0 608.000000 384.000000"
 preserveAspectRatio="xMidYMid meet">

<g transform="translate(0.000000,384.000000) scale(0.100000,-0.100000)"
fill="#000000" stroke="none">
<path d="M1540 3084 c-1 -169 -14 -430 -22 -435 -5 -3 -10 -92 -11 -197 -2
-151 -5 -188 -14 -180 -7 6 -13 17 -13 24 0 8 -9 14 -20 14 -17 0 -20 7 -21
53 -1 58 -5 86 -13 95 -8 7 -8 -40 0 -117 6 -50 10 -61 25 -61 11 0 19 -7 19
-17 0 -14 2 -15 9 -4 7 10 10 10 16 1 12 -19 9 -91 -3 -99 -8 -5 -6 -12 7 -23
17 -15 18 -6 25 236 4 142 11 252 17 254 5 2 9 102 9 244 l0 240 548 -7 c301
-4 563 -9 582 -10 19 -2 86 -4 149 -4 l113 -1 -6 -212 c-3 -117 -9 -275 -12
-350 -5 -120 -4 -138 9 -138 13 0 15 16 11 110 l-5 110 163 0 c90 1 289 5 443
10 154 4 282 7 284 5 2 -2 7 -143 12 -312 4 -169 9 -343 10 -385 1 -43 6 -78
10 -78 8 0 4 342 -6 530 -2 47 -5 124 -5 172 l0 88 -455 -7 c-390 -5 -455 -4
-451 8 8 23 15 458 8 463 -4 2 -196 7 -427 10 -231 3 -547 9 -702 12 l-283 7
0 -49z"/>
<path d="M2624 2875 c-20 -30 -11 -62 21 -77 35 -16 75 12 75 52 0 51 -67 69
-96 25z m70 -1 c20 -19 20 -23 -1 -46 -23 -26 -51 -23 -59 7 -11 45 29 71 60
39z"/>
<path d="M1759 2836 c-3 -25 -1 -46 3 -46 12 0 21 71 10 82 -7 7 -11 -5 -13
-36z"/>
<path d="M2032 2833 c2 -27 8 -48 13 -48 6 0 11 21 13 48 3 38 0 47 -13 47
-13 0 -16 -9 -13 -47z"/>
<path d="M1890 2834 c0 -8 5 -12 10 -9 6 3 10 10 10 16 0 5 -4 9 -10 9 -5 0
-10 -7 -10 -16z"/>
<path d="M2722 2738 c3 -7 25 -14 51 -16 37 -2 47 0 47 12 0 12 -12 16 -51 16
-36 0 -49 -4 -47 -12z"/>
<path d="M2460 2665 c0 -13 9 -16 48 -13 26 2 47 8 47 13 0 6 -21 11 -47 13
-39 3 -48 0 -48 -13z"/>
<path d="M1176 2643 l-39 -4 7 -45 c4 -31 2 -44 -7 -45 -48 -1 -132 -11 -136
-14 -10 -11 8 -12 82 -7 l78 5 -4 48 -3 49 65 0 c36 0 73 5 81 10 15 10 -41
11 -124 3z"/>
<path d="M2600 2635 c0 -9 5 -15 11 -13 6 2 11 8 11 13 0 5 -5 11 -11 13 -6 2
-11 -4 -11 -13z"/>
<path d="M904 2473 c4 -87 9 -179 12 -205 l5 -46 -73 -7 c-40 -3 -120 -5 -178
-3 -104 3 -105 3 -107 28 -1 14 -2 72 -4 130 -1 58 -6 132 -10 165 -5 37 -6
-17 -4 -138 2 -109 6 -201 9 -204 3 -3 89 -2 192 2 l186 7 -8 167 c-13 266
-16 244 31 249 59 6 56 12 -5 12 l-53 0 7 -157z"/>
<path d="M1266 2529 c3 -52 7 -100 10 -106 5 -19 124 -18 124 1 0 12 -11 13
-55 9 l-55 -6 -1 39 c-2 73 -10 139 -19 148 -5 5 -7 -30 -4 -85z"/>
<path d="M480 2600 c0 -13 40 -13 60 0 11 7 5 10 -22 10 -21 0 -38 -4 -38 -10z"/>
<path d="M106 2592 c-18 -4 -18 -13 -12 -180 4 -96 9 -179 12 -184 3 -4 10 -5
16 -2 6 4 8 -1 3 -15 -3 -11 -3 -21 2 -21 5 0 9 -9 9 -20 0 -21 -16 -29 -16
-7 -1 7 -7 4 -15 -7 -8 -10 -11 -24 -8 -30 4 -6 8 -33 9 -61 7 -219 8 -236 21
-219 7 10 13 14 14 8 0 -5 3 -22 5 -38 4 -23 2 -27 -11 -22 -15 5 -16 -6 -10
-116 4 -68 8 -143 10 -168 2 -25 7 -99 10 -165 3 -66 7 -145 10 -175 3 -30 8
-109 11 -175 3 -66 8 -122 10 -124 4 -4 143 -2 170 3 11 2 75 6 144 10 69 4
152 9 185 11 33 3 116 7 185 10 69 3 148 7 175 10 28 3 93 7 145 10 179 9 275
16 296 20 21 5 22 9 22 165 -1 118 3 164 13 176 11 14 9 15 -17 12 -22 -2 -28
-8 -27 -23 6 -52 23 -308 21 -311 -7 -6 -187 -18 -573 -39 -342 -18 -591 -34
-667 -41 l-56 -6 -6 54 c-3 29 -8 103 -11 163 -3 61 -12 218 -20 350 -9 132
-16 259 -18 283 -1 28 2 42 10 42 9 0 13 19 13 65 0 48 -4 65 -14 65 -9 0 -15
23 -19 83 -10 122 -9 137 8 137 22 0 19 117 -4 130 -9 5 -11 10 -4 10 9 0 8 8
-3 28 -18 35 -20 178 -2 184 9 3 8 9 -5 22 -9 10 -17 32 -17 52 l0 34 78 0
c42 0 93 3 113 6 l36 6 5 -46 c3 -26 8 -49 11 -52 2 -3 38 -1 78 4 l74 9 -72
2 c-69 1 -73 2 -73 24 0 12 -3 32 -6 45 -7 23 -9 23 -113 21 -58 -2 -114 -5
-125 -7z"/>
<path d="M1001 2564 c0 -11 3 -14 6 -6 3 7 2 16 -1 19 -3 4 -6 -2 -5 -13z"/>
<path d="M2727 2543 c-16 -15 -4 -23 37 -23 30 0 46 5 50 15 4 12 -4 15 -38
15 -23 0 -46 -3 -49 -7z"/>
<path d="M2460 2435 c0 -11 12 -15 45 -15 33 0 45 4 45 15 0 11 -12 15 -45 15
-33 0 -45 -4 -45 -15z"/>
<path d="M265 2400 c-3 -5 -1 -10 4 -10 6 0 11 5 11 10 0 6 -2 10 -4 10 -3 0
-8 -4 -11 -10z"/>
<path d="M330 2400 c0 -5 5 -10 10 -10 6 0 10 5 10 10 0 6 -4 10 -10 10 -5 0
-10 -4 -10 -10z"/>
<path d="M3156 2368 c3 -4 9 -8 15 -8 5 0 9 4 9 8 0 5 -7 9 -15 9 -8 0 -12 -4
-9 -9z"/>
<path d="M3245 2370 c-3 -5 1 -10 10 -10 9 0 13 5 10 10 -3 6 -8 10 -10 10 -2
0 -7 -4 -10 -10z"/>
<path d="M3340 2370 c0 -5 5 -10 10 -10 6 0 10 5 10 10 0 6 -4 10 -10 10 -5 0
-10 -4 -10 -10z"/>
<path d="M3420 2370 c0 -5 5 -10 10 -10 6 0 10 5 10 10 0 6 -4 10 -10 10 -5 0
-10 -4 -10 -10z"/>
<path d="M270 2310 c0 -5 5 -10 10 -10 6 0 10 5 10 10 0 6 -4 10 -10 10 -5 0
-10 -4 -10 -10z"/>
<path d="M3160 2300 c0 -5 5 -10 10 -10 6 0 10 5 10 10 0 6 -4 10 -10 10 -5 0
-10 -4 -10 -10z"/>
<path d="M3245 2300 c-3 -5 -1 -10 4 -10 6 0 11 5 11 10 0 6 -2 10 -4 10 -3 0
-8 -4 -11 -10z"/>
<path d="M3340 2300 c0 -5 5 -10 10 -10 6 0 10 5 10 10 0 6 -4 10 -10 10 -5 0
-10 -4 -10 -10z"/>
<path d="M3420 2300 c0 -5 5 -10 10 -10 6 0 10 5 10 10 0 6 -4 10 -10 10 -5 0
-10 -4 -10 -10z"/>
<path d="M210 2269 c0 -5 5 -7 10 -4 6 3 10 8 10 11 0 2 -4 4 -10 4 -5 0 -10
-5 -10 -11z"/>
<path d="M3157 2236 c-6 -15 1 -26 15 -26 4 0 8 9 8 20 0 23 -15 27 -23 6z"/>
<path d="M3423 2235 c0 -8 6 -15 14 -15 7 0 13 7 13 15 0 8 -6 15 -13 15 -8 0
-14 -7 -14 -15z"/>
<path d="M210 2180 c-14 -26 -1 -44 26 -38 13 2 19 12 19 28 0 32 -30 38 -45
10z m30 -4 c0 -3 -4 -8 -10 -11 -5 -3 -10 -1 -10 4 0 6 5 11 10 11 6 0 10 -2
10 -4z"/>
<path d="M2000 2170 c0 -5 -17 -10 -37 -10 -53 0 -72 -14 -56 -39 11 -17 14
-111 13 -378 0 -20 5 -23 39 -23 22 0 41 -3 43 -8 2 -4 29 -6 61 -4 l57 4 0
129 0 129 130 0 130 0 0 40 c0 24 5 40 12 40 9 0 9 3 0 12 -7 7 -12 29 -12 50
0 43 -2 43 -127 38 -34 -1 -68 2 -75 6 -7 5 -43 7 -79 5 -41 -1 -69 2 -73 8
-9 14 -26 14 -26 1z m362 -68 c2 -22 0 -57 -5 -80 l-8 -41 -102 5 c-56 3 -110
7 -119 8 -23 5 -27 -11 -30 -146 l-2 -118 -38 0 c-23 0 -38 5 -38 12 0 9 -3 9
-12 0 -7 -7 -26 -12 -42 -11 -17 0 -25 3 -18 6 8 3 10 9 4 16 -5 7 -12 95 -15
197 l-5 185 213 3 213 3 4 -39z"/>
<path d="M3160 2156 c0 -8 5 -18 10 -21 6 -3 10 3 10 14 0 12 -4 21 -10 21 -5
0 -10 -6 -10 -14z"/>
<path d="M3430 2155 c0 -8 7 -15 15 -15 8 0 15 7 15 15 0 8 -7 15 -15 15 -8 0
-15 -7 -15 -15z"/>
<path d="M3280 2084 c0 -8 5 -12 10 -9 6 4 8 11 5 16 -9 14 -15 11 -15 -7z"/>
<path d="M3195 2080 c-3 -5 -1 -10 4 -10 6 0 11 5 11 10 0 6 -2 10 -4 10 -3 0
-8 -4 -11 -10z"/>
<path d="M3360 2080 c0 -5 5 -10 10 -10 6 0 10 5 10 10 0 6 -4 10 -10 10 -5 0
-10 -4 -10 -10z"/>
<path d="M3450 2080 c0 -5 5 -10 10 -10 6 0 10 5 10 10 0 6 -4 10 -10 10 -5 0
-10 -4 -10 -10z"/>
<path d="M3206 2021 c-4 -7 -5 -15 -2 -18 9 -9 19 4 14 18 -4 11 -6 11 -12 0z"/>
<path d="M3280 2020 c0 -5 5 -10 11 -10 5 0 7 5 4 10 -3 6 -8 10 -11 10 -2 0
-4 -4 -4 -10z"/>
<path d="M3370 2009 c0 -5 5 -7 10 -4 6 3 10 8 10 11 0 2 -4 4 -10 4 -5 0 -10
-5 -10 -11z"/>
<path d="M3450 2010 c0 -5 5 -10 10 -10 6 0 10 5 10 10 0 6 -4 10 -10 10 -5 0
-10 -4 -10 -10z"/>
<path d="M2473 1909 c-12 -12 -6 -39 10 -50 5 -4 4 -16 -3 -29 -10 -18 -9 -21
1 -18 21 7 28 51 11 64 -17 12 -7 38 10 28 7 -4 8 -2 4 4 -9 15 -19 15 -33 1z"/>
<path d="M3716 1911 l-49 -6 1 -47 c0 -27 1 -75 1 -108 l1 -60 75 0 c43 0 75
4 75 10 0 6 -28 10 -65 10 l-65 0 0 33 c-1 17 -2 60 -3 95 l-2 62 68 0 c38 0
67 4 67 10 0 11 -23 11 -104 1z"/>
<path d="M3851 1668 l-1 -98 -61 0 -61 0 8 -258 7 -259 -123 -6 c-68 -4 -157
-7 -197 -7 l-75 0 4 -65 3 -65 -90 0 c-49 0 -127 -3 -172 -7 l-82 -6 -3 108
c-2 76 -7 110 -16 113 -7 2 -10 -2 -7 -10 5 -14 14 -126 14 -192 l1 -38 118 6
c64 4 148 7 186 7 l69 0 -7 63 -6 63 112 6 c62 4 153 7 201 7 l88 0 -7 265 -7
265 61 0 62 0 -1 58 c0 31 -4 77 -8 102 -7 38 -9 30 -10 -52z"/>
<path d="M1215 1735 c-12 -4 -380 -23 -595 -30 -217 -7 -300 -15 -300 -27 0
-7 27 -9 83 -5 45 4 170 11 277 17 107 6 205 13 216 15 12 3 92 5 178 6 128 0
156 3 156 15 0 8 -1 14 -2 13 -2 0 -7 -2 -13 -4z"/>
<path d="M2188 1719 c13 -5 39 -7 59 -4 33 4 35 3 31 -19 -4 -17 -1 -23 9 -19
9 3 13 -3 13 -20 0 -14 2 -31 5 -39 4 -10 -9 -12 -63 -10 -68 3 -69 4 -66 30
1 15 7 28 12 30 6 2 8 12 5 22 -3 11 -9 17 -14 15 -4 -3 -6 -12 -2 -20 3 -8 0
-15 -6 -15 -6 0 -11 -17 -11 -39 l0 -38 133 -6 c72 -3 139 -1 147 4 11 6 7 9
-15 10 -17 1 -23 3 -12 6 22 6 23 30 1 30 -9 0 -19 -9 -22 -19 -3 -13 -14 -18
-38 -18 -30 0 -34 3 -34 25 0 24 3 25 55 24 31 -1 59 1 62 5 11 11 13 76 3 76
-6 0 -10 -13 -10 -30 0 -30 -1 -30 -55 -30 -54 0 -55 0 -55 30 l0 30 -77 -1
c-58 0 -72 -3 -55 -10z"/>
<path d="M2360 1710 c0 -5 4 -10 9 -10 6 0 13 5 16 10 3 6 -1 10 -9 10 -9 0
-16 -4 -16 -10z"/>
<path d="M1500 1405 c0 -41 3 -75 8 -75 4 0 5 27 4 60 -3 38 1 66 8 75 10 12
9 15 -4 15 -13 0 -16 -12 -16 -75z"/>
<path d="M612 1213 c-21 -8 -33 -50 -22 -77 12 -32 45 -42 75 -22 56 37 9 124
-53 99z m52 -35 c20 -28 4 -58 -29 -58 -29 0 -45 41 -25 65 17 21 36 19 54 -7z"/>
<path d="M380 1110 c35 -31 50 -37 50 -21 0 14 -50 51 -69 51 -11 -1 -5 -10
19 -30z"/>
<path d="M2930 1023 c0 -105 7 -107 12 -3 2 41 8 78 13 82 6 4 2 8 -7 8 -16 0
-18 -11 -18 -87z"/>
<path d="M1516 1040 c5 -5 29 -11 51 -12 40 -1 42 -3 36 -28 -3 -15 0 -31 6
-34 7 -5 11 6 11 32 0 36 -3 40 -31 46 -49 9 -85 8 -73 -4z"/>
<path d="M1810 1041 c0 -7 21 -11 58 -11 74 -1 338 -11 377 -15 17 -1 49 -3
73 -4 l43 -1 -2 -57 -3 -58 90 -1 c73 -2 81 0 44 6 -25 5 -62 9 -84 9 l-38 1
7 55 c5 42 3 56 -7 59 -7 3 -76 7 -153 10 -77 4 -200 9 -272 13 -97 4 -133 3
-133 -6z"/>
<path d="M2733 955 c0 -22 2 -30 4 -17 2 12 2 30 0 40 -3 9 -5 -1 -4 -23z"/>
<path d="M2900 943 c0 -42 9 -39 16 6 3 18 1 31 -5 31 -6 0 -11 -16 -11 -37z"/>
<path d="M2815 950 c3 -5 11 -10 16 -10 6 0 7 5 4 10 -3 6 -11 10 -16 10 -6 0
-7 -4 -4 -10z"/>
<path d="M1586 942 c-3 -5 24 -10 67 -11 39 -2 91 -3 115 -4 23 -1 42 1 42 6
0 4 -15 7 -32 7 -18 1 -67 3 -109 6 -44 4 -79 2 -83 -4z"/>
<path d="M2505 920 c3 -5 30 -10 58 -10 37 0 48 3 37 10 -20 13 -103 13 -95 0z"/>
<path d="M2920 898 c0 -8 -44 -9 -167 -4 -108 5 -164 4 -158 -3 6 -5 84 -11
175 -13 150 -3 165 -1 168 15 2 9 -1 17 -7 17 -6 0 -11 -5 -11 -12z"/>
</g>
</svg>
