<?xml version="1.0" standalone="no"?>
<!DOCTYPE svg PUBLIC "-//W3C//DTD SVG 20010904//EN"
 "http://www.w3.org/TR/2001/REC-SVG-20010904/DTD/svg10.dtd">
<svg version="1.0" xmlns="http://www.w3.org/2000/svg"
 width="88.000000pt" height="113.000000pt" viewBox="0 0 88.000000 113.000000"
 preserveAspectRatio="xMidYMid meet">

<g transform="translate(0.000000,113.000000) scale(0.100000,-0.100000)"
fill="#000000" stroke="none">
<path d="M9 1114 c-7 -8 -9 -33 -5 -61 3 -27 6 -259 7 -517 1 -258 4 -477 6
-487 5 -17 16 -19 94 -19 72 0 89 -3 89 -15 0 -8 5 -15 10 -15 6 0 10 11 10
25 0 25 -1 25 -90 25 l-90 0 0 173 c0 94 -3 333 -7 530 l-6 357 410 0 410 0 6
-287 c4 -157 7 -393 7 -523 0 -230 -1 -238 -20 -243 -11 -3 -95 -6 -187 -7
-163 -1 -192 -7 -176 -33 3 -5 8 -4 12 2 5 7 74 12 196 13 l190 3 0 545 0 545
-427 1 c-345 1 -430 -2 -439 -12z"/>
<path d="M167 963 c-2 -5 -1 -19 4 -33 7 -24 7 -24 8 -2 1 20 6 22 49 22 l49
0 2 -107 2 -108 -46 -2 c-39 -2 -47 1 -55 20 -8 20 -9 19 -9 -10 l-1 -33 65 0
65 0 0 130 0 130 -64 0 c-36 0 -67 -3 -69 -7z"/>
<path d="M580 330 l-65 -5 0 -60 0 -60 55 -1 c42 -1 45 0 13 3 l-43 4 0 50 0
49 105 0 c115 0 106 6 119 -70 2 -14 3 2 2 35 l-1 60 -60 0 c-33 0 -89 -2
-125 -5z"/>
</g>
</svg>
