<?xml version="1.0" standalone="no"?>
<!DOCTYPE svg PUBLIC "-//W3C//DTD SVG 20010904//EN"
 "http://www.w3.org/TR/2001/REC-SVG-20010904/DTD/svg10.dtd">
<svg version="1.0" xmlns="http://www.w3.org/2000/svg"
 width="1216.000000pt" height="768.000000pt" viewBox="0 0 1216.000000 768.000000"
 preserveAspectRatio="xMidYMid meet">
<g transform="translate(0.000000,768.000000) scale(0.100000,-0.100000)"
fill="#000000" stroke="none">
<path d="M3070 6080 c0 -113 -4 -180 -10 -180 -14 0 -12 -27 3 -33 10 -4 10
-6 0 -6 -7 -1 -13 -7 -13 -15 0 -8 6 -17 13 -19 10 -4 10 -6 0 -6 -7 -1 -13
-7 -13 -15 0 -8 6 -17 13 -19 10 -4 10 -6 0 -6 -10 -1 -13 -56 -13 -241 0
-233 -1 -240 -20 -240 -18 0 -20 -7 -20 -70 0 -40 -4 -70 -10 -70 -5 0 -10 -7
-10 -15 0 -8 5 -15 10 -15 6 0 10 -25 10 -55 0 -30 -4 -55 -10 -55 -14 0 -12
-27 3 -33 10 -4 10 -6 0 -6 -15 -1 -18 -31 -3 -31 6 0 10 -7 10 -15 0 -8 -4
-15 -10 -15 -14 0 -12 -27 3 -33 10 -4 10 -6 0 -6 -15 -1 -18 -31 -3 -31 6 0
10 -11 10 -25 0 -14 -4 -25 -10 -25 -14 0 -12 -27 3 -33 10 -4 10 -6 0 -6 -9
-1 -13 -25 -13 -86 0 -61 4 -85 13 -86 6 0 4 -4 -7 -8 -17 -7 -17 -8 -2 -23 9
-9 16 -22 16 -28 0 -6 -11 0 -25 14 -14 14 -25 37 -25 51 0 25 -13 30 -61 26
-15 -2 -17 12 -18 106 -1 72 -6 110 -14 115 -9 6 -9 8 1 8 6 0 12 7 12 15 0 8
-4 15 -10 15 -5 0 -10 9 -10 20 0 11 -7 20 -15 20 -12 0 -15 -18 -15 -105 0
-63 4 -105 10 -105 6 0 10 -33 10 -80 l0 -80 40 0 c38 0 40 -2 40 -30 0 -20 5
-30 15 -30 9 0 15 9 15 21 0 18 2 19 15 9 9 -7 15 -29 15 -51 0 -22 5 -39 10
-39 6 0 10 -7 10 -15 0 -8 -4 -15 -10 -15 -5 0 -10 -18 -10 -40 0 -33 -3 -40
-20 -40 -11 0 -20 -5 -20 -11 0 -16 26 -39 44 -39 9 0 16 -8 16 -20 0 -11 7
-20 15 -20 13 0 15 40 15 300 0 193 4 300 10 300 6 0 10 77 10 210 0 203 1
210 20 210 20 0 20 7 20 480 l0 480 504 0 c326 0 507 -4 511 -10 4 -6 218 -10
610 -10 392 0 606 -4 610 -10 8 -13 48 -13 62 1 8 8 13 8 17 0 5 -7 81 -11
232 -11 l224 0 0 -344 c0 -267 -3 -345 -12 -349 -10 -3 -10 -7 0 -19 9 -12 10
-18 2 -23 -8 -5 -8 -10 0 -20 8 -9 8 -15 0 -20 -5 -3 -10 -39 -10 -81 0 -43
-4 -74 -10 -74 -6 0 -10 -85 -10 -235 l0 -235 35 0 c30 0 35 3 35 24 0 13 -6
27 -12 29 -10 4 -10 6 0 6 15 1 17 91 2 91 -5 0 -10 16 -10 35 0 19 5 35 10
35 6 0 10 7 10 15 0 8 -4 15 -10 15 -5 0 -10 7 -10 15 0 8 5 15 10 15 6 0 10
7 10 15 0 8 -4 15 -10 15 -6 0 -10 28 -10 65 l0 65 414 0 c266 0 417 4 421 10
4 6 138 10 370 10 232 0 366 4 370 10 3 6 48 10 101 10 l94 0 0 -84 c0 -47 5
-88 10 -91 6 -4 10 -155 10 -420 0 -265 4 -416 10 -420 6 -4 10 -98 10 -249 0
-161 4 -246 11 -253 8 -8 8 -13 0 -17 -19 -12 -12 -26 14 -26 l25 0 0 135 c0
83 -4 135 -10 135 -5 0 -10 16 -10 35 0 19 5 35 10 35 6 0 10 7 10 15 0 8 -4
15 -10 15 -6 0 -10 126 -10 359 0 278 -3 360 -12 364 -10 4 -10 6 0 6 14 1 17
51 2 51 -6 0 -10 80 -10 220 l0 220 -274 0 c-210 0 -276 -3 -279 -12 -4 -10
-6 -10 -6 0 -1 6 -7 12 -15 12 -8 0 -17 -6 -19 -12 -4 -10 -6 -10 -6 0 -1 6
-7 12 -15 12 -8 0 -17 -6 -19 -12 -4 -10 -6 -10 -6 0 -1 14 -31 17 -31 2 0 -7
-199 -10 -577 -9 -318 0 -572 3 -565 6 9 3 12 46 12 164 0 99 4 159 10 159 6
0 10 7 10 15 0 8 -4 15 -10 15 -5 0 -10 20 -10 45 0 25 5 45 10 45 6 0 10 7
10 15 0 8 -4 15 -10 15 -5 0 -10 16 -10 35 0 19 5 35 10 35 15 0 12 47 -2 53
-10 4 -10 6 0 6 6 1 12 7 12 15 0 8 -6 17 -12 19 -10 4 -10 6 0 6 6 1 12 12
12 25 0 13 -6 27 -12 29 -10 4 -10 6 0 6 14 1 17 51 2 51 -5 0 -10 7 -10 15 0
8 5 15 10 15 16 0 12 139 -4 156 -12 11 -61 14 -260 14 -157 0 -246 4 -246 10
0 6 -7 10 -15 10 -8 0 -15 -4 -15 -10 0 -5 -11 -10 -25 -10 -14 0 -25 5 -25
10 0 6 -7 10 -15 10 -8 0 -15 -4 -15 -10 0 -5 -16 -10 -35 -10 -19 0 -35 5
-35 10 0 6 -7 10 -15 10 -8 0 -15 -4 -15 -10 0 -6 -28 -10 -65 -10 -37 0 -65
4 -65 10 0 6 -11 10 -25 10 -14 0 -25 -4 -25 -10 0 -6 -28 -10 -65 -10 -37 0
-65 4 -65 10 0 6 -7 10 -15 10 -8 0 -15 -4 -15 -10 0 -5 -20 -10 -45 -10 -25
0 -45 5 -45 10 0 7 -140 10 -400 10 -260 0 -400 4 -400 10 0 6 -7 10 -15 10
-8 0 -15 -4 -15 -10 0 -6 -32 -10 -75 -10 -43 0 -75 4 -75 10 0 15 -67 12 -73
-2 -4 -10 -6 -10 -6 0 -1 8 -21 12 -65 12 -42 0 -66 -4 -69 -12 -4 -10 -6 -10
-6 0 -1 9 -57 12 -246 12 l-245 0 0 -180z"/>
<path d="M5257 5772 c-15 -15 -27 -33 -27 -40 0 -7 -4 -12 -10 -12 -5 0 -10
-16 -10 -35 0 -19 5 -35 10 -35 6 0 10 -7 10 -16 0 -8 6 -22 14 -30 8 -8 22
-14 30 -14 9 0 16 -4 16 -10 0 -5 16 -10 35 -10 19 0 35 5 35 10 0 6 7 10 15
10 9 0 27 12 40 28 31 34 35 121 8 143 -62 49 -125 53 -166 11z m93 -12 c0 -5
9 -10 20 -10 13 0 20 -7 20 -20 0 -11 5 -20 10 -20 19 0 10 -21 -25 -55 -41
-41 -95 -50 -95 -15 0 11 -4 20 -10 20 -19 0 -10 60 13 85 22 24 67 34 67 15z"/>
<path d="M3510 5680 c0 -47 -4 -80 -10 -80 -5 0 -10 -7 -10 -15 0 -9 9 -15 25
-15 21 0 25 5 25 30 0 17 5 30 10 30 16 0 12 99 -4 116 -29 28 -36 15 -36 -66z"/>
<path d="M4050 5669 c0 -65 4 -94 14 -105 8 -8 17 -14 21 -14 4 0 13 6 21 14
10 11 14 40 14 105 l0 91 -35 0 -35 0 0 -91z"/>
<path d="M3770 5665 c0 -19 5 -35 11 -35 17 0 39 27 39 49 0 16 -6 21 -25 21
-22 0 -25 -4 -25 -35z"/>
<path d="M5430 5479 c0 -40 23 -49 119 -49 l91 0 0 35 0 35 -105 0 c-100 0
-105 -1 -105 -21z"/>
<path d="M4910 5325 l0 -35 91 0 c65 0 94 4 105 14 8 8 14 17 14 21 0 4 -6 13
-14 21 -11 10 -40 14 -105 14 l-91 0 0 -35z"/>
<path d="M2410 5290 c0 -6 -30 -10 -70 -10 l-70 0 0 -65 c0 -37 4 -65 10 -65
6 0 10 -11 10 -25 0 -21 -5 -25 -29 -25 -16 0 -32 -6 -34 -12 -4 -10 -6 -10
-6 0 -1 14 -91 17 -91 2 0 -5 -30 -10 -67 -12 -60 -3 -68 -5 -68 -23 0 -24 46
-33 79 -16 12 6 71 12 131 13 l110 3 3 53 c2 30 -2 59 -7 66 -7 9 -7 16 1 24
10 10 10 17 0 32 -12 20 -9 20 128 20 87 0 140 4 140 10 0 6 9 10 20 10 11 0
20 7 20 15 0 12 -18 15 -105 15 -63 0 -105 -4 -105 -10z"/>
<path d="M5190 5265 c0 -29 4 -35 21 -35 19 0 49 21 49 35 0 14 -30 35 -49 35
-17 0 -21 -6 -21 -35z"/>
<path d="M1790 5086 c0 -130 3 -176 13 -179 10 -4 10 -6 0 -6 -15 -1 -18 -31
-3 -31 6 0 10 -57 10 -150 0 -93 4 -150 10 -150 6 0 10 -7 10 -15 0 -8 -4 -15
-10 -15 -5 0 -10 -7 -10 -15 0 -8 5 -15 10 -15 6 0 10 -16 10 -35 l0 -35 -70
0 c-40 0 -70 -4 -70 -10 0 -6 -97 -10 -271 -10 -221 0 -273 3 -285 14 -16 17
-19 36 -4 36 6 0 10 7 10 15 0 8 -4 15 -10 15 -6 0 -10 76 -10 209 0 158 -3
211 -12 214 -10 4 -10 6 0 6 14 1 17 51 2 51 -6 0 -10 40 -10 101 0 76 -3 100
-12 97 -17 -6 -24 -566 -8 -582 5 -5 10 -58 10 -118 l0 -108 205 0 c130 0 205
4 205 10 0 6 67 10 180 10 l180 0 0 169 c0 103 -4 172 -10 176 -6 4 -10 72
-10 170 0 98 -4 166 -10 170 -5 3 -10 34 -10 69 0 65 14 94 36 75 8 -7 14 -7
19 1 3 5 33 10 66 10 46 0 59 3 59 15 0 12 -18 15 -105 15 l-105 0 0 -174z"/>
<path d="M1750 5225 c0 -8 7 -15 15 -15 8 0 15 7 15 15 0 8 -7 15 -15 15 -8 0
-15 -7 -15 -15z"/>
<path d="M2516 5233 c-10 -10 -7 -91 4 -98 6 -4 10 -65 10 -149 0 -183 -6
-176 153 -176 l117 0 0 35 c0 33 -2 35 -35 35 -19 0 -35 -4 -35 -10 0 -6 -32
-10 -75 -10 l-75 0 0 79 c0 54 -4 81 -12 84 -10 4 -10 6 0 6 6 1 12 7 12 15 0
8 -6 17 -12 19 -10 4 -10 6 0 6 14 1 17 31 2 31 -6 0 -10 26 -10 58 0 45 -4
60 -19 69 -10 7 -22 9 -25 6z"/>
<path d="M950 5195 c0 -23 3 -25 49 -25 28 0 53 5 56 10 3 6 15 10 26 10 10 0
19 7 19 15 0 12 -15 15 -75 15 -73 0 -75 -1 -75 -25z"/>
<path d="M230 5190 c0 -5 -13 -10 -30 -10 l-30 0 0 -194 c0 -146 3 -196 13
-199 10 -4 10 -6 0 -6 -15 -1 -18 -31 -3 -31 6 0 10 -7 10 -15 0 -8 -4 -15
-10 -15 -5 0 -10 -7 -10 -15 0 -8 5 -15 10 -15 6 0 10 -45 10 -116 0 -87 4
-119 14 -130 18 -17 33 -18 39 -1 3 7 6 5 6 -5 1 -10 -3 -18 -9 -18 -5 0 -10
-11 -10 -25 0 -18 5 -25 20 -25 17 0 19 -3 8 -19 -9 -15 -9 -23 1 -35 11 -13
11 -16 -3 -16 -9 0 -16 8 -16 20 0 11 -5 20 -11 20 -16 0 -39 -26 -39 -44 0
-9 -4 -16 -10 -16 -5 0 -10 -7 -10 -15 0 -8 5 -15 10 -15 6 0 10 -9 10 -19 0
-11 6 -22 13 -24 10 -4 10 -6 0 -6 -17 -1 -17 -28 0 -34 10 -4 10 -6 0 -6 -7
-1 -13 -7 -13 -15 0 -8 6 -17 13 -19 10 -4 10 -6 0 -6 -17 -1 -17 -28 0 -34 9
-4 9 -6 0 -6 -15 -1 -18 -51 -3 -51 6 0 10 -53 10 -140 0 -87 4 -140 10 -140
6 0 10 -11 10 -25 0 -14 -4 -25 -10 -25 -5 0 -10 -11 -10 -25 0 -14 3 -25 8
-25 15 1 40 26 45 45 4 18 5 18 6 -2 0 -12 7 -24 14 -26 9 -4 9 -6 0 -6 -15
-1 -18 -31 -3 -31 6 0 10 -11 10 -25 0 -25 -23 -35 -35 -15 -18 28 -25 0 -25
-94 0 -74 4 -106 13 -109 9 -4 9 -6 0 -6 -15 -1 -18 -31 -3 -31 6 0 10 -56 10
-149 0 -110 3 -151 13 -154 9 -4 10 -6 0 -6 -15 -1 -18 -31 -3 -31 6 0 10 -7
10 -15 0 -8 -4 -15 -10 -15 -5 0 -10 -7 -10 -15 0 -8 5 -15 10 -15 6 0 10 -40
10 -100 0 -60 4 -100 10 -100 6 0 10 -16 10 -35 0 -19 -4 -35 -10 -35 -5 0
-10 -11 -10 -25 0 -14 5 -25 10 -25 6 0 10 -57 10 -150 0 -93 4 -150 10 -150
6 0 10 -56 10 -149 0 -110 3 -151 13 -154 9 -4 9 -6 0 -6 -17 -1 -17 -28 0
-34 9 -4 9 -6 0 -6 -15 -1 -18 -31 -3 -31 6 0 10 -43 10 -110 l0 -110 30 0
c17 0 30 -4 30 -10 0 -5 7 -10 15 -10 8 0 15 5 15 10 0 6 50 10 129 10 94 0
131 3 134 13 4 9 6 9 6 0 1 -15 31 -18 31 -3 0 6 50 10 129 10 94 0 131 3 134
13 4 9 6 9 6 0 1 -15 31 -18 31 -3 0 6 60 10 160 10 100 0 160 4 160 10 0 6
66 10 179 10 134 0 181 3 184 13 4 9 6 9 6 0 1 -15 31 -18 31 -3 0 6 7 10 15
10 8 0 15 -4 15 -10 0 -5 7 -10 15 -10 8 0 15 5 15 10 0 6 50 10 130 10 80 0
130 4 130 10 0 6 53 10 139 10 102 0 141 3 144 13 4 9 6 9 6 0 1 -15 31 -18
31 -3 0 6 7 10 15 10 8 0 15 -4 15 -10 0 -5 7 -10 15 -10 8 0 15 5 15 10 0 6
50 10 130 10 80 0 130 4 130 10 0 6 50 10 130 10 80 0 130 4 130 10 0 6 9 10
20 10 19 0 20 7 20 119 0 69 -4 122 -10 126 -5 3 -10 31 -10 61 0 30 5 54 10
54 14 0 13 73 -1 87 -8 8 -8 13 0 17 7 5 11 44 11 99 0 81 2 94 20 107 11 8
20 20 20 27 0 19 -97 17 -116 -1 -16 -17 -19 -36 -4 -36 6 0 10 -40 10 -100 0
-60 4 -100 10 -100 6 0 10 -55 10 -144 0 -86 4 -147 10 -151 6 -3 10 -35 10
-71 l0 -64 -54 0 c-30 0 -58 -5 -61 -10 -5 -8 -12 -7 -23 2 -12 10 -16 10 -19
1 -4 -10 -40 -13 -138 -13 -83 0 -136 -4 -140 -10 -5 -8 -12 -7 -23 2 -12 10
-16 10 -19 1 -4 -10 -42 -13 -148 -13 -85 0 -146 -4 -150 -10 -4 -6 -75 -10
-180 -10 -105 0 -176 -4 -180 -10 -4 -6 -75 -10 -180 -10 -105 0 -176 -4 -180
-10 -4 -6 -82 -10 -200 -10 -118 0 -196 -4 -200 -10 -4 -6 -62 -10 -140 -10
-78 0 -136 -4 -140 -10 -4 -6 -65 -10 -150 -10 -85 0 -146 -4 -150 -10 -3 -5
-31 -10 -61 -10 l-54 0 0 44 c0 25 -4 48 -10 51 -6 4 -10 68 -10 160 0 97 -4
156 -10 160 -8 5 -7 12 2 23 10 12 10 16 0 19 -9 4 -12 48 -12 178 0 105 -4
176 -10 180 -6 4 -10 62 -10 140 0 78 -4 136 -10 140 -6 4 -10 68 -10 160 0
92 -4 156 -10 160 -6 4 -10 71 -10 169 0 113 -4 166 -12 174 -9 9 -5 12 20 12
l32 0 0 135 0 135 -30 0 -30 0 0 104 c0 59 -4 108 -10 111 -6 3 -10 52 -10
111 l0 104 30 0 30 0 0 78 c0 43 -5 83 -11 89 -8 8 -8 13 0 17 29 18 -2 85
-40 87 -8 0 -3 5 10 10 l24 9 -21 23 c-12 13 -22 33 -22 45 0 11 -4 24 -10 27
-6 4 -10 68 -10 159 0 145 1 154 20 159 25 6 26 37 2 43 -26 7 -42 51 -42 116
l0 58 174 0 c106 0 177 4 181 10 3 6 26 10 51 10 l44 0 0 -63 c0 -35 4 -67 9
-72 5 -6 11 -21 13 -35 3 -23 8 -25 57 -28 30 -2 59 2 64 7 6 6 50 11 99 11
72 0 88 3 88 15 0 13 -22 15 -140 15 l-140 0 0 60 c0 33 -4 60 -10 60 -5 0
-10 14 -10 30 l0 30 -184 0 c-138 0 -186 -3 -189 -12 -4 -10 -6 -10 -6 0 -1 6
-7 12 -15 12 -8 0 -17 -6 -19 -12 -4 -10 -6 -10 -6 0 -1 14 -31 17 -31 2z"/>
<path d="M1992 5188 c6 -18 28 -21 28 -4 0 9 -7 16 -16 16 -9 0 -14 -5 -12
-12z"/>
<path d="M1994 5146 c-8 -21 -1 -49 14 -54 8 -2 12 8 12 32 0 36 -16 49 -26
22z"/>
<path d="M5443 5085 c-7 -8 -13 -23 -13 -35 0 -19 6 -20 95 -20 88 0 95 1 95
20 0 11 5 20 10 20 6 0 10 7 10 15 0 21 -179 21 -197 0z"/>
<path d="M2770 5045 c0 -8 7 -15 15 -15 8 0 15 7 15 15 0 8 -7 15 -15 15 -8 0
-15 -7 -15 -15z"/>
<path d="M2770 4996 c0 -17 5 -26 16 -26 10 0 14 7 12 22 -5 32 -28 35 -28 4z"/>
<path d="M390 4965 c0 -9 9 -15 25 -15 16 0 25 6 25 15 0 9 -9 15 -25 15 -16
0 -25 -6 -25 -15z"/>
<path d="M2830 4955 c0 -16 6 -25 15 -25 9 0 15 9 15 25 0 16 -6 25 -15 25 -9
0 -15 -9 -15 -25z"/>
<path d="M4910 4865 l0 -35 95 0 95 0 0 35 0 35 -95 0 -95 0 0 -35z"/>
<path d="M527 4802 c-23 -25 -21 -34 6 -30 14 2 23 11 25 26 4 27 -9 28 -31 4z"/>
<path d="M654 4805 c-4 -9 -2 -21 4 -27 15 -15 44 -1 40 19 -4 23 -36 29 -44
8z"/>
<path d="M6290 4749 c0 -17 27 -39 49 -39 16 0 21 6 21 25 0 26 -24 35 -33 13
-4 -10 -6 -10 -6 0 -1 15 -31 16 -31 1z"/>
<path d="M6483 4745 c-22 -24 -15 -35 22 -35 37 0 44 12 21 36 -18 17 -27 17
-43 -1z"/>
<path d="M6670 4735 c0 -20 5 -25 25 -25 20 0 25 5 25 25 0 20 -5 25 -25 25
-20 0 -25 -5 -25 -25z"/>
<path d="M6830 4735 c0 -20 5 -25 25 -25 20 0 25 5 25 25 0 20 -5 25 -25 25
-20 0 -25 -5 -25 -25z"/>
<path d="M537 4633 c-4 -3 -7 -15 -7 -25 0 -13 7 -18 25 -18 20 0 25 5 25 25
0 18 -5 25 -18 25 -10 0 -22 -3 -25 -7z"/>
<path d="M670 4625 c0 -9 9 -15 25 -15 16 0 25 6 25 15 0 9 -9 15 -25 15 -16
0 -25 -6 -25 -15z"/>
<path d="M6310 4595 c0 -20 5 -25 25 -25 20 0 25 5 25 25 0 20 -5 25 -25 25
-20 0 -25 -5 -25 -25z"/>
<path d="M6483 4605 c-20 -22 -15 -35 12 -35 20 0 25 5 25 25 0 27 -18 32 -37
10z"/>
<path d="M6670 4595 c0 -20 5 -25 25 -25 20 0 25 5 25 25 0 20 -5 25 -25 25
-20 0 -25 -5 -25 -25z"/>
<path d="M6830 4595 c0 -20 5 -25 25 -25 20 0 25 5 25 25 0 20 -5 25 -25 25
-20 0 -25 -5 -25 -25z"/>
<path d="M417 4553 c-10 -9 -9 -43 1 -43 10 0 42 33 42 43 0 9 -35 9 -43 0z"/>
<path d="M6310 4480 c0 -11 -4 -20 -10 -20 -5 0 -10 -5 -10 -11 0 -17 27 -39
49 -39 18 0 21 6 21 45 0 41 -2 45 -25 45 -18 0 -25 -5 -25 -20z"/>
<path d="M6830 4486 c0 -8 6 -17 13 -19 10 -4 10 -6 0 -6 -7 -1 -13 -8 -13
-16 0 -10 11 -15 35 -15 33 0 35 2 35 35 0 33 -2 35 -35 35 -24 0 -35 -5 -35
-14z"/>
<path d="M429 4383 c-8 -10 -21 -30 -29 -45 -12 -25 -11 -30 5 -48 23 -25 76
-26 98 -2 10 10 17 32 17 49 0 53 -60 83 -91 46z m41 -37 c0 -2 -7 -9 -15 -16
-12 -10 -15 -10 -15 4 0 9 7 16 15 16 8 0 15 -2 15 -4z"/>
<path d="M2950 4365 c0 -8 7 -15 15 -15 8 0 15 7 15 15 0 8 -7 15 -15 15 -8 0
-15 -7 -15 -15z"/>
<path d="M3990 4340 c0 -18 -7 -20 -80 -20 -47 0 -80 -4 -80 -10 0 -5 -9 -10
-20 -10 -16 0 -20 -7 -20 -33 0 -21 7 -36 20 -45 18 -11 20 -23 20 -107 0 -57
-4 -95 -10 -95 -5 0 -10 -11 -10 -25 0 -14 5 -25 10 -25 6 0 10 -25 10 -55 0
-30 -4 -55 -10 -55 -5 0 -10 -7 -10 -15 0 -8 5 -15 10 -15 6 0 10 -42 10 -105
0 -63 -4 -105 -10 -105 -14 0 -12 -27 3 -33 10 -4 10 -6 0 -6 -14 -1 -18 -31
-5 -31 12 0 31 -49 21 -56 -5 -3 -9 -18 -9 -35 l0 -29 80 0 c73 0 80 -2 80
-20 0 -15 7 -20 25 -20 14 0 25 5 25 10 0 6 40 10 100 10 l100 0 0 260 0 260
260 0 260 0 0 80 c0 73 2 80 20 80 11 0 20 6 20 13 0 7 -9 18 -20 25 -17 10
-20 23 -20 92 l0 80 -60 0 c-33 0 -60 4 -60 10 0 6 -16 10 -35 10 -19 0 -35
-4 -35 -10 0 -6 -42 -10 -105 -10 -94 0 -106 2 -117 20 -13 20 -58 28 -58 10
0 -6 -45 -10 -115 -10 -104 0 -116 2 -127 20 -7 11 -23 20 -35 20 -16 0 -23
-6 -23 -20z m-80 -80 c0 -5 7 -10 15 -10 8 0 15 5 15 10 0 6 16 10 35 10 19 0
35 -4 35 -10 0 -15 50 -12 51 3 0 10 2 10 6 0 2 -7 11 -13 19 -13 8 0 14 6 15
13 0 10 2 10 6 0 2 -7 11 -13 19 -13 8 0 14 6 15 13 0 10 2 10 6 0 2 -7 11
-13 19 -13 8 0 14 6 15 13 0 10 2 10 6 0 6 -16 33 -17 33 -2 0 8 68 10 242 7
l242 -4 -3 -56 c-2 -39 2 -60 13 -71 9 -9 11 -17 6 -19 -6 -2 -11 -25 -12 -51
0 -26 -4 -47 -9 -47 -5 0 -9 -13 -9 -30 0 -28 -3 -30 -35 -30 -19 0 -35 5 -35
10 0 6 -7 10 -15 10 -8 0 -15 -4 -15 -10 0 -5 -7 -10 -15 -10 -8 0 -15 5 -15
10 0 6 -60 10 -160 10 -100 0 -160 4 -160 10 0 6 -7 10 -15 10 -8 0 -15 -9
-15 -20 0 -11 -4 -20 -10 -20 -6 0 -10 -70 -10 -190 0 -120 -4 -190 -10 -190
-5 0 -10 -7 -10 -15 0 -8 5 -15 10 -15 6 0 10 -7 10 -15 0 -8 -4 -15 -10 -15
-15 0 -12 -47 3 -53 6 -3 -23 -5 -65 -5 -70 0 -78 2 -78 19 0 25 -22 24 -38
-1 -10 -17 -22 -20 -70 -19 -31 1 -47 4 -34 6 27 5 28 24 2 43 -19 14 -20 26
-20 272 0 169 -4 258 -10 258 -6 0 -10 30 -9 75 1 41 5 75 10 75 5 0 9 7 9 15
0 8 -4 15 -10 15 -5 0 -10 11 -10 25 0 20 5 25 25 25 14 0 25 -4 25 -10z"/>
<path d="M3886 4241 c-4 -5 -2 -12 3 -15 5 -4 12 -2 15 3 4 5 2 12 -3 15 -5 4
-12 2 -15 -3z"/>
<path d="M4610 4225 c13 -14 26 -25 28 -25 3 0 -5 11 -18 25 -13 14 -26 25
-28 25 -3 0 5 -11 18 -25z"/>
<path d="M4630 4245 c0 -3 11 -17 25 -30 31 -32 35 -31 35 5 0 27 -3 30 -30
30 -16 0 -30 -2 -30 -5z"/>
<path d="M3958 4233 c12 -2 30 -2 40 0 9 3 -1 5 -23 4 -22 0 -30 -2 -17 -4z"/>
<path d="M4645 4181 c-3 -5 -1 -12 5 -16 5 -3 10 1 10 9 0 18 -6 21 -15 7z"/>
<path d="M4666 4141 c-3 -5 1 -14 8 -20 12 -10 13 -8 9 8 -6 23 -9 25 -17 12z"/>
<path d="M3892 4105 c0 -16 2 -22 5 -12 2 9 2 23 0 30 -3 6 -5 -1 -5 -18z"/>
<path d="M3943 3513 c15 -2 37 -2 50 0 12 2 0 4 -28 4 -27 0 -38 -2 -22 -4z"/>
<path d="M4048 3513 c7 -3 16 -2 19 1 4 3 -2 6 -13 5 -11 0 -14 -3 -6 -6z"/>
<path d="M6310 4309 c0 -30 19 -59 39 -59 6 0 11 20 11 45 0 41 -2 45 -25 45
-21 0 -25 -5 -25 -31z"/>
<path d="M6850 4305 c0 -33 2 -35 35 -35 33 0 35 2 35 35 0 33 -2 35 -35 35
-33 0 -35 -2 -35 -35z"/>
<path d="M6550 4165 c0 -19 5 -35 11 -35 11 0 39 25 39 35 0 10 -28 35 -39 35
-6 0 -11 -16 -11 -35z"/>
<path d="M6383 4165 c-20 -22 -15 -35 12 -35 20 0 25 5 25 25 0 27 -18 32 -37
10z"/>
<path d="M6710 4155 c0 -20 5 -25 25 -25 20 0 25 5 25 25 0 20 -5 25 -25 25
-20 0 -25 -5 -25 -25z"/>
<path d="M6890 4155 c0 -20 5 -25 25 -25 20 0 25 5 25 25 0 20 -5 25 -25 25
-20 0 -25 -5 -25 -25z"/>
<path d="M6403 4045 c-23 -25 -16 -55 12 -55 22 0 25 4 25 35 0 37 -15 45 -37
20z"/>
<path d="M6550 4035 c0 -20 5 -25 25 -25 28 0 32 14 11 36 -22 21 -36 17 -36
-11z"/>
<path d="M6730 4015 c0 -28 14 -32 36 -11 21 22 17 36 -11 36 -20 0 -25 -5
-25 -25z"/>
<path d="M6890 4015 c0 -20 5 -25 25 -25 20 0 25 5 25 25 0 20 -5 25 -25 25
-20 0 -25 -5 -25 -25z"/>
<path d="M4933 3814 c-24 -26 -29 -44 -13 -44 6 0 10 -13 10 -30 0 -23 4 -30
20 -30 11 0 20 -7 20 -15 0 -8 -4 -15 -10 -15 -5 0 -10 -9 -10 -20 0 -11 -4
-20 -10 -20 -5 0 -10 -7 -10 -15 0 -19 37 -20 56 -1 8 8 14 31 14 50 0 20 5
36 10 36 6 0 10 7 10 15 0 8 -7 15 -16 15 -17 0 -44 23 -44 38 0 5 7 15 15 22
10 9 15 9 15 1 0 -6 7 -11 15 -11 19 0 19 17 1 36 -21 20 -47 16 -73 -12z"/>
<path d="M7515 3830 c-3 -5 -42 -10 -88 -10 -52 -1 -88 -5 -99 -14 -20 -14
-24 -36 -8 -36 6 0 10 -28 10 -65 0 -37 -4 -65 -10 -65 -5 0 -10 -7 -10 -15 0
-8 5 -15 10 -15 6 0 10 -47 10 -120 l0 -121 153 3 c149 3 152 3 155 26 3 22 3
22 -127 22 l-131 0 0 69 c0 46 -4 71 -12 74 -10 4 -10 6 0 6 8 1 12 25 12 85
0 58 -4 86 -12 89 -10 4 -10 6 0 6 6 1 12 7 12 15 0 8 -6 17 -12 19 -7 3 51 6
130 6 143 1 143 1 140 24 -3 19 -10 22 -60 25 -32 2 -59 -2 -63 -8z"/>
<path d="M4890 3705 c0 -8 7 -15 15 -15 8 0 15 7 15 15 0 8 -7 15 -15 15 -8 0
-15 -7 -15 -15z"/>
<path d="M7710 3665 c0 -8 7 -15 15 -15 8 0 15 7 15 15 0 8 -7 15 -15 15 -8 0
-15 -7 -15 -15z"/>
<path d="M230 3625 c0 -8 7 -15 15 -15 8 0 15 7 15 15 0 8 -7 15 -15 15 -8 0
-15 -7 -15 -15z"/>
<path d="M7690 3330 l0 -190 -120 0 -120 0 0 -229 c0 -143 4 -232 10 -236 6
-4 10 -112 10 -291 l0 -284 -154 0 c-93 0 -157 -4 -161 -10 -4 -6 -93 -10
-236 -10 l-229 0 0 -118 c0 -78 4 -122 12 -130 9 -9 -41 -12 -224 -12 -147 0
-239 -4 -243 -10 -3 -6 -52 -10 -111 -10 l-104 0 0 206 c0 165 -3 208 -14 220
-19 19 -56 18 -56 -1 0 -8 5 -15 10 -15 6 0 10 -30 10 -70 0 -39 6 -80 13 -91
10 -17 10 -23 0 -26 -15 -6 -17 -33 -3 -33 6 0 10 -11 10 -25 0 -14 -4 -25
-10 -25 -5 0 -10 -7 -10 -15 0 -8 5 -15 10 -15 6 0 10 -33 10 -80 l0 -80 124
0 c90 0 126 3 129 13 4 10 6 10 6 0 1 -15 31 -18 31 -3 0 6 60 10 159 10 118
0 161 3 164 13 4 9 6 9 6 0 1 -9 21 -13 66 -13 l65 0 0 85 c0 50 -4 85 -10 85
-5 0 -10 20 -10 45 l0 45 150 0 c93 0 150 4 150 10 0 6 90 10 250 10 l250 0 0
194 c0 146 -3 196 -12 199 -10 4 -10 6 0 6 14 1 17 31 2 31 -6 0 -10 112 -10
315 l0 315 120 0 120 0 0 135 c0 83 -4 135 -10 135 -6 0 -10 30 -10 70 0 56
-3 70 -15 70 -13 0 -15 -28 -15 -190z"/>
<path d="M2430 3470 c0 -6 -57 -10 -150 -10 -93 0 -150 -4 -150 -10 0 -6 -70
-10 -190 -10 -120 0 -190 -4 -190 -10 0 -6 -76 -10 -209 -10 -158 0 -211 -3
-214 -12 -4 -10 -6 -10 -6 0 -1 6 -7 12 -15 12 -8 0 -17 -6 -19 -12 -4 -10 -6
-10 -6 0 -1 6 -7 12 -15 12 -8 0 -17 -6 -19 -12 -4 -10 -6 -10 -6 0 -1 14 -31
17 -31 2 0 -6 -80 -10 -220 -10 -140 0 -220 -4 -220 -10 0 -6 -30 -10 -70 -10
-68 0 -70 -1 -70 -25 l0 -25 105 0 c63 0 105 4 105 10 0 6 60 10 160 10 100 0
160 4 160 10 0 6 70 10 190 10 120 0 190 4 190 10 0 6 50 10 130 10 80 0 130
4 130 10 0 6 90 10 249 10 190 0 251 3 254 13 4 10 6 10 6 0 1 -9 23 -13 76
-13 l75 0 0 35 c0 24 -5 35 -15 35 -8 0 -15 -4 -15 -10z"/>
<path d="M4330 3445 c0 -10 10 -15 30 -15 17 0 30 -4 30 -9 0 -16 27 -20 54
-6 15 8 28 10 31 4 8 -12 45 -12 45 1 0 6 7 10 15 10 10 0 15 -11 15 -35 0
-19 -4 -35 -10 -35 -5 0 -10 -7 -10 -15 0 -8 7 -15 15 -15 8 0 15 5 15 10 0 6
7 10 16 10 12 0 15 -11 13 -57 -2 -37 2 -58 9 -61 7 -2 12 -11 12 -19 0 -12
-3 -13 -15 -3 -10 8 -56 12 -137 12 -68 0 -117 3 -110 5 6 3 12 15 12 28 0 13
-6 26 -12 28 -10 4 -10 6 0 6 6 1 12 10 12 21 0 13 7 20 20 20 11 0 20 7 20
15 0 8 -4 15 -10 15 -5 0 -10 14 -10 30 0 33 -6 36 -32 16 -20 -14 -24 -36 -8
-36 6 0 10 -7 10 -15 0 -8 -9 -15 -20 -15 -18 0 -20 -7 -20 -85 l0 -85 200 0
c127 0 200 -4 200 -10 0 -6 32 -10 75 -10 43 0 75 4 75 10 0 6 9 10 20 10 11
0 20 7 20 15 0 11 -13 15 -52 17 -36 1 -43 2 -20 5 29 4 32 7 32 39 0 35 -8
42 -26 24 -8 -8 -15 -6 -24 5 -11 13 -7 15 29 15 34 0 41 3 41 20 0 11 5 20
10 20 15 0 12 67 -2 73 -10 4 -10 6 0 6 6 1 12 12 12 26 0 20 -5 25 -25 25
-24 0 -25 -3 -25 -60 l0 -60 -105 0 -105 0 0 60 0 60 -155 0 c-131 0 -155 -2
-155 -15z m446 -169 c9 -9 10 -17 4 -21 -5 -3 -10 -17 -10 -31 0 -23 -3 -24
-65 -24 l-65 0 0 45 0 45 61 0 c39 0 65 -5 75 -14z"/>
<path d="M4710 3415 c0 -19 5 -25 21 -25 22 0 49 22 49 39 0 6 -16 11 -35 11
-31 0 -35 -3 -35 -25z"/>
<path d="M3830 3405 c0 -8 7 -15 15 -15 8 0 15 7 15 15 0 8 -7 15 -15 15 -8 0
-15 -7 -15 -15z"/>
<path d="M4427 3313 c18 -2 50 -2 70 0 21 2 7 4 -32 4 -38 0 -55 -2 -38 -4z"/>
<path d="M2680 3176 c0 -7 7 -19 15 -26 13 -11 15 -8 15 14 0 16 -5 26 -15 26
-8 0 -15 -6 -15 -14z"/>
<path d="M2687 3058 c6 -7 13 -20 16 -28 3 -9 6 -3 6 13 1 19 -4 27 -15 27
-12 0 -14 -4 -7 -12z"/>
<path d="M2990 2805 l0 -155 25 0 c16 0 25 6 25 15 0 8 -4 15 -10 15 -6 0 -10
44 -10 113 0 101 2 114 20 127 31 23 25 40 -15 40 l-35 0 0 -155z"/>
<path d="M5600 2876 c0 -7 7 -19 15 -26 13 -11 15 -8 15 14 0 16 -5 26 -15 26
-8 0 -15 -6 -15 -14z"/>
<path d="M5560 2826 c0 -2 7 -9 15 -16 12 -10 15 -10 15 4 0 9 -7 16 -15 16
-8 0 -15 -2 -15 -4z"/>
<path d="M1230 2430 c0 -5 -7 -10 -16 -10 -23 0 -44 -25 -44 -54 0 -14 -4 -26
-10 -26 -5 0 -10 -11 -10 -25 0 -14 5 -25 10 -25 6 0 10 -12 10 -26 0 -29 21
-54 44 -54 9 0 16 -4 16 -10 0 -5 16 -10 35 -10 19 0 35 5 35 10 0 6 7 10 15
10 8 0 26 11 40 25 20 21 25 36 25 75 0 28 -4 50 -10 50 -5 0 -10 7 -10 15 0
30 -49 65 -90 65 -22 0 -40 -4 -40 -10z m75 -70 c14 -13 25 -29 25 -37 0 -7 6
-13 13 -14 10 0 10 -2 0 -6 -7 -2 -13 -11 -13 -20 0 -26 -27 -43 -69 -43 -34
0 -41 3 -41 20 0 11 -4 20 -10 20 -5 0 -10 14 -10 31 0 22 8 39 26 54 32 27
46 26 79 -5z"/>
<path d="M1240 2360 c0 -5 11 -10 24 -10 13 0 26 -6 29 -12 2 -7 8 -10 12 -6
11 11 -21 38 -44 38 -12 0 -21 -4 -21 -10z"/>
<path d="M690 2270 c0 -13 72 -79 86 -80 6 0 19 -9 29 -20 23 -25 55 -26 55
-2 0 20 -69 92 -88 92 -7 0 -12 5 -12 10 0 6 -16 10 -35 10 -19 0 -35 -4 -35
-10z"/>
<path d="M5850 2045 c0 -149 2 -175 15 -175 12 0 15 16 15 80 0 47 4 80 10 80
6 0 10 7 10 15 0 8 -4 15 -10 15 -5 0 -10 11 -10 25 0 14 5 25 10 25 14 0 12
54 -2 68 -9 9 -7 12 10 12 13 0 22 6 22 15 0 10 -11 15 -35 15 l-35 0 0 -175z"/>
<path d="M3017 2094 c-3 -3 -1 -15 6 -25 9 -15 24 -19 69 -19 32 0 58 -4 58
-10 0 -5 7 -10 15 -10 8 0 15 5 15 10 0 6 7 10 15 10 8 0 15 -7 15 -15 0 -8
-4 -15 -10 -15 -5 0 -10 -19 -10 -43 0 -31 5 -45 19 -54 10 -7 22 -9 25 -6 3
4 6 42 6 85 l0 78 -39 0 c-22 0 -43 5 -46 10 -7 11 -128 14 -138 4z"/>
<path d="M3610 2075 l0 -25 190 0 c120 0 190 -4 190 -10 0 -15 127 -13 133 3
4 10 6 10 6 0 1 -10 42 -13 171 -13 107 0 170 -4 170 -10 0 -5 7 -10 15 -10 8
0 15 5 15 10 0 6 7 10 15 10 8 0 15 -4 15 -10 0 -6 37 -10 90 -10 l90 0 0 -95
c0 -57 -4 -95 -10 -95 -15 0 -12 -19 4 -36 22 -21 356 -21 356 1 0 12 -14 15
-69 15 -39 0 -73 5 -76 10 -3 6 -44 10 -91 10 l-84 0 0 54 c0 30 5 58 10 61 6
3 10 25 10 49 0 72 -11 76 -197 76 -120 0 -162 3 -166 13 -3 9 -7 9 -19 -1
-11 -9 -18 -10 -23 -2 -4 6 -79 10 -210 10 -125 0 -206 4 -210 10 -4 6 -70 10
-166 10 l-159 0 0 -25z"/>
<path d="M5910 2085 c0 -8 7 -15 15 -15 8 0 15 7 15 15 0 8 -7 15 -15 15 -8 0
-15 -7 -15 -15z"/>
<path d="M3610 1975 c0 -16 6 -25 15 -25 9 0 15 9 15 25 0 16 -6 25 -15 25 -9
0 -15 -9 -15 -25z"/>
<path d="M5450 1905 c0 -60 3 -75 15 -75 12 0 15 15 15 75 0 60 -3 75 -15 75
-12 0 -15 -15 -15 -75z"/>
<path d="M5790 1886 c0 -73 12 -99 27 -58 4 9 11 20 17 24 8 5 7 11 -1 19 -9
9 -9 16 -2 25 18 21 7 59 -18 62 -22 3 -23 0 -23 -72z"/>
<path d="M5890 1925 c0 -8 7 -15 15 -15 8 0 15 7 15 15 0 8 -7 15 -15 15 -8 0
-15 -7 -15 -15z"/>
<path d="M5610 1909 c0 -16 31 -38 53 -39 9 0 17 5 17 11 0 16 -31 38 -52 39
-10 0 -18 -5 -18 -11z"/>
<path d="M3163 1885 c-7 -8 -13 -19 -13 -25 0 -14 47 -13 53 3 4 10 6 10 6 0
1 -10 32 -13 121 -13 73 0 120 -4 120 -10 0 -5 7 -10 15 -10 8 0 15 5 15 10 0
6 25 10 55 10 30 0 55 -4 55 -10 0 -5 7 -10 15 -10 9 0 15 9 15 25 0 25 -1 25
-89 25 -63 0 -91 4 -94 13 -3 9 -7 9 -19 -1 -12 -9 -18 -10 -23 -2 -5 8 -10 8
-20 0 -9 -8 -15 -8 -20 0 -10 16 -177 12 -192 -5z"/>
<path d="M4990 1852 c0 -5 8 -17 19 -26 15 -14 35 -16 111 -14 64 2 95 7 98
16 2 7 -5 12 -17 12 -11 0 -23 5 -26 10 -7 12 -185 14 -185 2z"/>
<path d="M5870 1845 c0 -8 7 -15 15 -15 8 0 15 7 15 15 0 8 -7 15 -15 15 -8 0
-15 -7 -15 -15z"/>
<path d="M5830 1800 c0 -19 -7 -20 -194 -20 -119 0 -197 4 -201 10 -9 14 -265
13 -265 -1 0 -34 27 -39 204 -39 111 0 176 -4 176 -10 0 -15 47 -12 53 3 4 10
6 10 6 0 1 -15 31 -18 31 -3 0 6 7 10 15 10 8 0 15 -4 15 -10 0 -6 37 -10 91
-10 101 0 119 9 119 59 0 26 -4 31 -25 31 -18 0 -25 -5 -25 -20z"/>
</g>
</svg>
